/* XPM */
static char *bitcoin64[] = {
/* columns rows colors chars-per-pixel */
"64 64 217 2 ",
"   c #110F11",
".  c #0F1210",
"X  c #141515",
"o  c #151816",
"O  c #171719",
"+  c #191719",
"@  c #161918",
"#  c #1B1B1C",
"$  c #191216",
"%  c #201A1E",
"&  c #25141E",
"*  c #290F1E",
"=  c #1E201E",
"-  c #1E2417",
";  c #20241E",
":  c #24291F",
">  c #2C371F",
",  c #1F1F20",
"<  c #221D21",
"1  c #2B1D25",
"2  c #2D1F28",
"3  c #341D2A",
"4  c #3C1C2E",
"5  c #3A162B",
"6  c #3C1E30",
"7  c #1F2120",
"8  c #212122",
"9  c #292126",
"0  c #262A23",
"q  c #292D26",
"w  c #2D2329",
"e  c #2C2B29",
"r  c #36242D",
"t  c #2C3424",
"y  c #2E3626",
"u  c #323D25",
"i  c #31372A",
"p  c #343D2B",
"a  c #3B2C33",
"s  c #3A2630",
"d  c #3A3931",
"f  c #451731",
"g  c #4A1634",
"h  c #451A33",
"j  c #4A1B36",
"k  c #4D1C38",
"l  c #56183C",
"z  c #4F1034",
"x  c #462A37",
"c  c #4A323D",
"v  c #344126",
"b  c #364229",
"n  c #39442C",
"m  c #3D4C2C",
"M  c #384A24",
"N  c #3E502C",
"B  c #3C4533",
"V  c #41542D",
"C  c #465B2E",
"Z  c #4A5A38",
"A  c #49622E",
"S  c #4D6631",
"D  c #536B38",
"F  c #567334",
"G  c #5A7B35",
"H  c #5D7D39",
"J  c #59743A",
"K  c #5E1B41",
"L  c #681645",
"P  c #7B144F",
"I  c #72164A",
"U  c #7E1651",
"Y  c #780D4A",
"T  c #5B3747",
"R  c #533041",
"E  c #642646",
"W  c #66384D",
"Q  c #763754",
"!  c #712F4F",
"~  c #4F5B41",
"^  c #75475A",
"/  c #6B4854",
"(  c #5A684A",
")  c #5F6B50",
"_  c #647B49",
"`  c #677854",
"'  c #606C51",
"]  c #7E4E62",
"[  c #8C0D55",
"{  c #970D5B",
"}  c #851454",
"|  c #8A1256",
" . c #8D1358",
".. c #93125B",
"X. c #99115E",
"o. c #8B345D",
"O. c #9E1061",
"+. c #AE0E69",
"@. c #A80E65",
"#. c #B40D6C",
"$. c #B90D6E",
"%. c #A91067",
"&. c #BE0D71",
"*. c #B8106E",
"=. c #953B65",
"-. c #8E3D62",
";. c #AD2F6F",
":. c #C50B74",
">. c #C90A77",
",. c #CD0A78",
"<. c #D4097C",
"1. c #D9087F",
"2. c #D7077D",
"3. c #C7237A",
"4. c #954C6B",
"5. c #8E566D",
"6. c #B15577",
"7. c #BC656A",
"8. c #A35B5F",
"9. c #C1457E",
"0. c #5F8138",
"q. c #61843A",
"w. c #678C3C",
"e. c #6B933E",
"r. c #6E983F",
"t. c #729F3F",
"y. c #73A03F",
"u. c #6E9740",
"i. c #739D42",
"p. c #74984A",
"a. c #6D8056",
"s. c #73875D",
"d. c #7C9B58",
"f. c #76A342",
"g. c #7BAB44",
"h. c #7BA649",
"j. c #7FB146",
"k. c #7FA356",
"l. c #7D9562",
"z. c #798965",
"x. c #81B547",
"c. c #85BB48",
"v. c #8DBE4C",
"b. c #84B74A",
"n. c #85AC58",
"m. c #8AB558",
"M. c #90BA4D",
"N. c #8B9F73",
"B. c #8BAB66",
"V. c #93B868",
"C. c #94AB78",
"Z. c #9AB778",
"A. c #8DA86C",
"S. c #8BC44A",
"D. c #8EC84B",
"F. c #96CA58",
"G. c #8EC151",
"H. c #9DCD66",
"J. c #9AC36A",
"K. c #9ECB6A",
"L. c #A1CD6E",
"P. c #A4C979",
"I. c #A9D27A",
"U. c #A4D271",
"Y. c #DE0781",
"T. c #DD0881",
"R. c #E40784",
"E. c #E90687",
"W. c #EA0A87",
"Q. c #ED0588",
"!. c #E70A86",
"~. c #F1058B",
"^. c #F1098B",
"/. c #D72282",
"(. c #D93C88",
"). c #EE238F",
"_. c #EB3E92",
"`. c #F33194",
"'. c #B76A8A",
"]. c #B4728D",
"[. c #B65D83",
"{. c #DA5892",
"}. c #CB5188",
"|. c #ED599C",
" X c #F2519B",
".X c #F05E9F",
"XX c #EF4095",
"oX c #D96A99",
"OX c #C77597",
"+X c #C56890",
"@X c #E3669C",
"#X c #F25FA0",
"$X c #DD78A2",
"%X c #EE6BA3",
"&X c #F36AA6",
"*X c #EC76A8",
"=X c #F378AC",
"-X c #D2A79A",
";X c #DD86AA",
":X c #E385AC",
">X c #EB8BB2",
",X c #F382B1",
"<X c #F58CB7",
"1X c #F697BD",
"2X c #EB90B5",
"3X c #D4B2A6",
"4X c #CF9E90",
"5X c #AED482",
"6X c #B4D58B",
"7X c #B5D98A",
"8X c #BCDC95",
"9X c #BAD896",
"0X c #AACF80",
"qX c #C1DD9D",
"wX c #C4E19F",
"eX c #FA99C0",
"rX c None",
/* pixels */
"rXrXrXrXrXrXrXrXrXrXrXrXrXrXrXrXrXrXrXrXrXrXrXrXrXrXrXrXQ.Q.Q.Q.E.Q.Q.Q.rXrXrXrXrXrXrXrXrXrXrXrXrXrXrXrXrXrXrXrXrXrXrXrXrXrXrXrX",
"rXrXrXrXrXrXrXrXrXrXrXrXrXrXrXrXrXrXrXrXrXrXrXQ.Q.Q.Q.Q.Q.Q.Q.~.~.Q.Q.Q.Q.Q.Q.Q.Q.rXrXrXrXrXrXrXrXrXrXrXrXrXrXrXrXrXrXrXrXrXrXrX",
"rXrXrXrXrXrXrXrXrXrXrXrXrXrXrXrXrXrXrXrXQ.Q.Q.Q.~.Q.E.R.<.:.&.*.&.&.>.2.T.E.Q.Q.Q.Q.Q.Q.rXrXrXrXrXrXrXrXrXrXrXrXrXrXrXrXrXrXrXrX",
"rXrXrXrXrXrXrXrXrXrXrXrXrXrXrXrXrXrXQ.Q.Q.Q.Q.<.#.} L h 4 2 1 1 9 9 w 6 k L  .#.2.E.~.Q.Q.Q.rXrXrXrXrXrXrXrXrXrXrXrXrXrXrXrXrXrX",
"rXrXrXrXrXrXrXrXrXrXrXrXrXrXrXrXQ.Q.Q.Q.T.+.I 5 % @ o @ # = 7 7 , 7 8 7 7 7 # < 5 I @.T.Q.Q.Q.E.rXrXrXrXrXrXrXrXrXrXrXrXrXrXrXrX",
"rXrXrXrXrXrXrXrXrXrXrXrXrXrXrXQ.E.Q.1.{ g # o o O # # # # # # 7 , , 8 8 8 8 8 # # @ + g { 2.Q.Q.Q.rXrXrXrXrXrXrXrXrXrXrXrXrXrXrX",
"rXrXrXrXrXrXrXrXrXrXrXrXrXE.Q.Q.R.@.f # O # # # # # @ # # # # # # < 7 8 8 8 8 8 # # @ X $ 5 { R.Q.Q.Q.rXrXrXrXrXrXrXrXrXrXrXrXrX",
"rXrXrXrXrXrXrXrXrXrXrXrXQ.Q.Q.:.l # o O # + @ # O @ # $ # # # # # , , 7 8 8 8 8 7 # # O $ X $ z &.Q.Q.Q.rXrXrXrXrXrXrXrXrXrXrXrX",
"rXrXrXrXrXrXrXrXrXrXrXQ.Q.!.X.3 # # # # @ # $ @ O O @ O @ # & < < < 8 # = 7 7 8 8 7 7 # @ O X . * { R.Q.Q.rXrXrXrXrXrXrXrXrXrXrX",
"rXrXrXrXrXrXrXrXrXrXQ.Q.T.U < # # # # # # @ # + @ < f L } O.+.#.#.+.@.| L h 9 7 8 8 7 , # @ O X .   Y E.Q.!.rXrXrXrXrXrXrXrXrXrX",
"rXrXrXrXrXrXrXrXrXQ.Q.<.L 7 # 7 7 # # # + o # f } &.T.Q.~.~.Q.^.^.Q.^.Q.Q.T.+.h 7 8 8 8 # # X X   $ [ E.W.7.v.rXrXrXrXrXrXrXrXrX",
"rXrXrXrXrXrXrXrXQ.Q.1.L 7 7 8 # # # # # # l @.1.~.Q.T.:.@.[ Y I Y P  .%.:.R.~.%.9 8 8 7 2 j l 3 & [ E.W.7.S.S.S.rXrXrXrXrXrXrXrX",
"rXrXrXrXrXrXrXQ.^.T.L 8 8 8 7 , 7 # # 6 X.R.~.E.$.P g 1 # @ @ @ @ @ # # 1 I R.<.4 7 7 x #.R.E.,.#.E.E.7.S.S.c.S.S.rXrXrXrXrXrXrX",
"rXrXrXrXrXrXQ.Q.!.U 8 8 8 8 8 , # , L ,.~.R.+.l < + O O O # # O @ @ + # # | Q.,.3 # j >.~.Y.,.Q.Q.W.7.v.S.F A S.S.S.rXrXrXrXrXrX",
"rXrXrXrXrXrXQ.Q.X.9 8 8 8 8 8 7 9 } R.Q.:.L < @ # o $ # @ @ # @ @ # @ , | E.E.} 7 j >.Q.,.K 4 X.!.7.S.c.F o X G S.S.rXrXrXrXrXrX",
"rXrXrXrXrXQ.Q.:.3 , 8 8 8 8 8 9 ..E.E.@.4 # # # # # # o @ @ @ @ @ @ # | E.E. .< h :.Q.,.k , 7 2 ^ v.D.r.# X . - y.S.S.rXrXrXrXrX",
"rXrXrXrXQ.Q.R.K = , 8 , 8 8 9 ..Q.R.| 1 , , # # # # @ < 5 l Y P P Y { R.E. .% f :.~.,.k # 8 8 8 : H D.g.: o X . M c.S.S.rXrXrXrX",
"rXrXrXrXQ.Q.O.< # , , , 8 8 U Q.!.} 9 7 , # 7 # # 4 U &.T.Q.Q.~.Q.~.~.R. .% f :.~.>.j 7 7 , 8 8 ; u x.v.b O O X X G D.S.rXrXrXrX",
"rXrXrXQ.Q.2.f # # 7 # = # K T.Q. .9 7 7 , , 7 2 } <.Q.Q.R.>.#.@.%.#.#.I # f :.~.>.g # # , , 8 8 % V x.c.p # # O   > x.D.S.rXrXrX",
"rXrXrXQ.Q...# # # # = # 3 :.^.+.w 8 8 8 7 7 l &.Q.Q.>.} g 3 & # # % + O f >.~.>.f # # # , # # ; n g.D.e.0 , # @ o X G D.S.rXrXrX",
"rXrXQ.Q.R.g # + # # # # } Q.<.j 7 8 8 8 7 L ,.Q.<.P 2 # @ @ , @ # # o f :.~.>.g # + # # # # # n g.D.f.n 7 < , # @ X u b.S.S.rXrX",
"rXrXQ.Q.+.# + # # # # f <.W.P 8 8 8 8 7 L T.Q.&.j # , # , # # @ + o f :.~.,.f # + # # # # # n g.D.f.b < 8 8 , , # @ # w.S.S.rXrX",
"rXrXQ.Q.I o # O # @ # ..^.:.w % 7 8 8 k <.Q.+.s , , , # , # # @ # 5 &.^.>.f o # @ $ O # # b g.D.f.b # < 7 7 8 8 % # + C S.S.rXrX",
"rX).)./.4 o # @ + O 3 3.).! # % , , 3 ;.).3.s 7 , , , , , , , # O E )./.j @ @ @ # # @ O b h.F.h.b # t i 0 < 8 8 8 = # t b.D.F.rX",
"rXXXXX;.% @ # # O O E _.(.s # # , , ! _.(.R < 8 7 8 , , , # # # # o.`.;.= # o # # O O n n.F.h.b = J n.m.p.p 8 8 8 ; , = p.F.F.rX",
"rX X X-.O @ # O o # =. X=.# % # , 9 }. X=.8 8 9 8 8 7 , , , , # # !  X}.x o O # + O n n.H.n.p 8 _ H.H.J.H.d.0 7 8 8 < # _ H.K.rX",
"rX.X.XW o # O # @ 8 }.#XW $ # # # W |.{.x 7 8 8 8 8 8 < , , , , # s {.#X}.d O o O n V.U.B.p = _ L.L._ D J.J.p # 8 8 8 , Z L.U.rX",
"rX&X@Xx O @ # O @ x @X@Xx O @ # # 4.&X4.< , 8 8 8 8 8 7 7 , , 7 9 4.%X%X4XA.n # B V.I.B.b = a.U.I._ , 0 B.I.( # < 8 8 7 B L.I.rX",
"=X=XoXa @ @ @ # O T *XoX9 O @ # 1 +X=X^ # , , 8 8 8 8 8 7 , 7 9 4.*X=X-X5X0XZ.l.Z.5XV.p X ( 5X5X` = # # l.7X` 7 , 8 8 7 d P.5X5X",
"=X,XoXw # # # @ $ / ,X'.< o o O r $X:XR # , , 7 8 8 < e / ^ W 5.,X,X-X6X5X0X6X7X7XC.B O # A.7Xs.= o # # a.9Xl.7 , , 8 7 e Z.6X6X",
"<X<XOXe # # # # o ] <X'.# # + O x :X;Xa # # , , 7 7 a ].>X<X>X>X<X3X9X9Xs.d ' s.( q O @ # C.8X( O # # O ` 8XN.7 , , 7 , e C.9X9X",
"1X1X].e , # # # @ 5.1X].# # # O R 2X;Xa # # , # , a ].eX:XOX2XeX3XqX9Xz.8 # + # @ O # # # N.wX` O @ $ O ' wXC.7 , , , , e Z.wX8X",
"1XeXOXw , , # # # 5.1X].# # o O R 2X;Xa + # # # a ].eX;X/ e ^ 3XwXqXz.9 , , + , # + @ + # N.wX` + + @ + ( wXC.8 # # , , 0 Z.wXqX",
">X<XOXw , , , # @ ^ <X].# o # O a ;X:Xc O # # s ].<X;X/ 7 7 7 ) 6X6X~ # , , , # , @ # # 7 C.9X( O + @ + ` wXN.= # # , # q C.9X9X",
",X,XOXa , , , , # / ,X+X9 # # O q OX,XW O O s '.<X$XW 7 7 7 7 q C.6X( , , , , , # , , + q Z.6X~ X @ @ + a.7Xl.# # # # 8 t Z.6X6X",
"=X=XoXa 7 , , , # c *XoXs O @ O , 6.=X4.O r [.=X$XW , , , , < ~ 0X0X~ , , , , # # , # + B 0XP.p + @ + , l.5X` # # # # # i Z.6X5X",
"rX&X@Xc 7 7 8 , # a {.%XT O # # X Q *X}.x [.&XoXW + , , = , Z P.5Xl.e 8 , , , , , # , # _ I.B.7 @ @ @ 0 B.I.Z + @ # # # B P.I.rX",
"rX%X.X! 7 8 8 7 = 8 6.%X-.+ # O @ s {.%X{.#X{.E + , + + # Z J.U.d.i 7 8 , 7 7 , , , # q n.L.( # @ # X n J.J.p O # $ # + Z L.L.rX",
"rX X X-.7 7 8 8 7 , Q  X9.1 # @ @ # o. X X{.E @ + + @ , Z J.H.d.p , 8 8 8 8 8 8 , , , J K.m.i @ # + + ( K.k.= @ o # # @ _ L.H.rX",
"rXXXXX;.1 7 8 8 8 < j (._.R # # # X r (.(.T # @ @ + , V m.F.p.y , , 8 8 8 8 8 8 , , n m.F._ # # # # 7 h.F._ o @ # @ @ = p.F.F.rX",
"rX).)./.x # 7 7 8 8 9 ;.).%.< # # @ @ E L @ @ @ @ @ C b.F.u.t # , , , , 8 8 8 8 , t p.F.h.q # # # # m G.v.u O o O # O t b.F.G.rX",
"rXrX^.W.I X # 7 8 8 7 K !.!.l # # # # @ @ # @ # o V x.D.e.q # # , # , , , 8 8 , p u.D.x.n , , # # = r.S.q.# # O # o O A S.D.rXrX",
"rXrXQ.Q.+.& # , , 8 8 9 %.^.$.2 , # # + # + # @ V x.D.e.q # # # # , , , , , 8 m f.S.x.C , , , , # C S.c.n # O # $ # # e.S.S.rXrX",
"rXrXQ.Q.T.f @ # , 8 8 7 x T.Q.} , # # # @ # @ V x.D.j.b $ @ $ # # # # # 7 n H b.D.j.V < 7 , , 7 y f.D.0.# # # @ @ @ b c.S.S.rXrX",
"rXrXrXQ.Q.{ O O # # 8 8 8 } Q.T.K = # # # # + V g.S.S.f.G N u t q t b A w.x.S.S.u.n 7 8 8 8 , 8 q.D.g.y # # # # @ # 0.D.S.rXrXrX",
"rXrXrXQ.Q.T.5 X O # , , 0 w +.~.<.l 7 # # # # # t G j.S.D.S.c.x.j.x.S.S.D.S.f.C q , 8 8 8 8 7 F D.c.C # # # # # O u x.S.S.rXrXrX",
"rXrXrXrXQ.~.{ $ X @ @ , , 1 O.Q.W.8.n = # # # o O @ t A w.f.x.c.c.c.j.y.H N 0 , , , , 8 < 0 D S.S.D < # % = # # # q.S.S.rXrXrXrX",
"rXrXrXrXQ.Q.R.l . O @ @ 1 ..E.W.7.v.g.V 8 # # # # # o o # : t v b u t = # # # , , , , < e H S.S.H 0 , , # # # # V c.S.S.rXrXrXrX",
"rXrXrXrXrXQ.Q.:.* . O &  .Q.W.7.v.S.D.j.D q # # # @ # @ # @ @ O O @ $ # # # # # # , , p u.S.v.H 0 , , , , , # t f.S.S.rXrXrXrXrX",
"rXrXrXrXrXrXQ.Q.{ X $ [ E.W.7.v.S.0.u.S.S.u.m = @ # # # @ $ # O # o # # # # # # # q D j.D.b.S 0 8 8 8 , , , 7 0.S.S.rXrXrXrXrXrX",
"rXrXrXrXrXrXQ.Q.R.Y [ E.E.7.v.S.H q q F b.D.b.w.m : @ O o # # @ O # @ @ # # # t S f.S.S.f.N 8 8 8 8 8 7 7 7 S v.S.S.rXrXrXrXrXrX",
"rXrXrXrXrXrXrXQ.Q.E.E.E.7.v.S.G 8 , < 8 m e.S.S.S.f.J m > ; = # # # = : u C q.j.S.D.j.F t , 7 8 8 8 8 8 7 C b.S.S.rXrXrXrXrXrXrX",
"rXrXrXrXrXrXrXrXQ.Q.Q.7.v.S.F - # , , 7 , 0 m u.j.D.S.S.x.f.r.w.w.e.r.g.c.S.D.S.g.F u , , , , 8 8 8 , , V x.D.S.rXrXrXrXrXrXrXrX",
"rXrXrXrXrXrXrXrXrXE.7.v.S.F o X O # , , < < , 0 b S e.g.c.S.S.D.D.D.S.S.x.f.0.V 0 # # # # = , , < 8 0 Z x.D.S.rXrXrXrXrXrXrXrXrX",
"rXrXrXrXrXrXrXrXrXrXv.S.S.A .   X + + , , 8 8 8 , # 0 q b V A D F A C M u = # O O @ # # # < # 8 , 8 D b.S.S.rXrXrXrXrXrXrXrXrXrX",
"rXrXrXrXrXrXrXrXrXrXrXS.S.S.0.;   X O , , 7 8 8 8 7 , , # # # + + o O # O + @ O # # O # # # , # t q.S.S.S.rXrXrXrXrXrXrXrXrXrXrX",
"rXrXrXrXrXrXrXrXrXrXrXrXS.S.S.y.M o X @ # # 8 8 8 8 8 , 7 # # # # # O + @ O @ # @ # @ # # # ; V f.S.S.S.rXrXrXrXrXrXrXrXrXrXrXrX",
"rXrXrXrXrXrXrXrXrXrXrXrXrXS.S.S.c.0.> o $ # # 8 8 8 8 8 8 7 , # # # # # # # # O # @ $ @ # u q.c.S.S.S.rXrXrXrXrXrXrXrXrXrXrXrXrX",
"rXrXrXrXrXrXrXrXrXrXrXrXrXrXrXS.S.D.x.G b - O # < 8 8 8 8 , , , # # # # # # O @ o O = b 0.x.S.S.S.rXrXrXrXrXrXrXrXrXrXrXrXrXrXrX",
"rXrXrXrXrXrXrXrXrXrXrXrXrXrXrXrXS.S.S.D.c.e.C u 8 , , 7 7 < < # # # # # o $ @ # t A e.c.S.S.S.S.rXrXrXrXrXrXrXrXrXrXrXrXrXrXrXrX",
"rXrXrXrXrXrXrXrXrXrXrXrXrXrXrXrXrXrXS.S.S.S.S.x.u.J C n y q 0 0 ; 0 0 t b V F r.x.S.S.S.S.S.rXrXrXrXrXrXrXrXrXrXrXrXrXrXrXrXrXrX",
"rXrXrXrXrXrXrXrXrXrXrXrXrXrXrXrXrXrXrXrXS.S.S.S.D.D.S.c.j.g.f.i.i.f.g.j.c.S.D.S.S.S.S.S.rXrXrXrXrXrXrXrXrXrXrXrXrXrXrXrXrXrXrXrX",
"rXrXrXrXrXrXrXrXrXrXrXrXrXrXrXrXrXrXrXrXrXrXrXS.S.S.S.S.S.D.S.S.S.S.S.S.S.S.S.S.S.rXrXrXrXrXrXrXrXrXrXrXrXrXrXrXrXrXrXrXrXrXrXrX",
"rXrXrXrXrXrXrXrXrXrXrXrXrXrXrXrXrXrXrXrXrXrXrXrXrXrXrXrXS.S.S.S.S.S.S.S.rXrXrXrXrXrXrXrXrXrXrXrXrXrXrXrXrXrXrXrXrXrXrXrXrXrXrXrX"
};
