/* XPM */
static char *bitcoin64[] = {
/* columns rows colors chars-per-pixel */
"64 64 210 2 ",
"   c #0C0D0C",
".  c #0F100F",
"X  c #131313",
"o  c #1C1C1C",
"O  c #161816",
"+  c #1F211F",
"@  c #242524",
"#  c #2C2C2C",
"$  c #333433",
"%  c #3B3C3B",
"&  c #383837",
"*  c #30302F",
"=  c #434343",
"-  c #4C4C4C",
";  c #535353",
":  c #5D5D5D",
">  c #504F4F",
",  c #605F5F",
"<  c #6D7E5A",
"1  c #605F60",
"2  c #656565",
"3  c #6B6B6B",
"4  c #737D68",
"5  c #747474",
"6  c #7B7B7B",
"7  c #936D79",
"8  c #6A894A",
"9  c #6D8357",
"0  c #73895D",
"q  c #789659",
"w  c #71924F",
"e  c #7CA94E",
"r  c #7EAA51",
"t  c #7DA554",
"y  c #798869",
"u  c #7D8475",
"i  c #81AD55",
"p  c #85AE5A",
"a  c #81A65B",
"s  c #86B15B",
"d  c #89B25E",
"f  c #84B056",
"g  c #83867F",
"h  c #88947C",
"j  c #829B68",
"k  c #89A967",
"l  c #8CB463",
"z  c #8FB766",
"x  c #92BB66",
"c  c #91B66B",
"v  c #95BC6C",
"b  c #98BB6E",
"n  c #90B767",
"m  c #97BB70",
"M  c #99BD72",
"N  c #8EA672",
"B  c #97C06C",
"V  c #9AC26D",
"C  c #9DC373",
"Z  c #9FC278",
"A  c #A2C57C",
"S  c #A5CB7B",
"D  c #A9CE7E",
"F  c #AAD07F",
"G  c #B65996",
"H  c #9F7792",
"J  c #A66892",
"K  c #B16A9A",
"L  c #C2589E",
"P  c #CC5CA6",
"I  c #D759AA",
"U  c #E65CB3",
"Y  c #E95DB5",
"T  c #D868AD",
"R  c #CE76B3",
"E  c #D576BA",
"W  c #D579BB",
"Q  c #DC78BD",
"!  c #DA74BA",
"~  c #CD6BAD",
"^  c #E165AE",
"/  c #E168AE",
"(  c #E073AF",
")  c #E562B6",
"_  c #E962B7",
"`  c #E566B8",
"'  c #EC62B9",
"]  c #E66CBC",
"[  c #E86AB9",
"{  c #E473BF",
"}  c #E873BE",
"|  c #E179B3",
" . c #EA7AC1",
".. c #E77BC4",
"X. c #838383",
"o. c #8C8C8B",
"O. c #878A84",
"+. c #8E9884",
"@. c #919988",
"#. c #959595",
"$. c #989797",
"%. c #9B9B9B",
"&. c #9A9E96",
"*. c #BB9A8C",
"=. c #A09F9F",
"-. c #9EAB8F",
";. c #BDA88F",
":. c #BFAD92",
">. c #A2B38F",
",. c #A597A1",
"<. c #B59EAE",
"1. c #A98AA0",
"2. c #A4A3A3",
"3. c #ACABAB",
"4. c #AAA7A9",
"5. c #B6A9B2",
"6. c #B4B3B3",
"7. c #BCBCBC",
"8. c #B8B7B7",
"9. c #C28D93",
"0. c #C1B194",
"q. c #CB8AB9",
"w. c #D386BE",
"e. c #CA92BA",
"r. c #C0BFBF",
"t. c #C3B2BF",
"y. c #ABCD83",
"u. c #AACA85",
"i. c #AED184",
"p. c #AFD188",
"a. c #B3D48C",
"s. c #B1D387",
"d. c #B4CE95",
"f. c #B5D592",
"g. c #BBDA95",
"h. c #BAD69B",
"j. c #BEDC99",
"k. c #B8D793",
"l. c #B1CF8D",
"z. c #BED7A4",
"x. c #C1DE9C",
"c. c #C3E19E",
"v. c #CCC5A4",
"b. c #C3DDA4",
"n. c #C6DEAA",
"m. c #C8DFAD",
"M. c #C3C6BE",
"N. c #CBDEB3",
"B. c #C9D7BA",
"V. c #C6E3A1",
"C. c #CAE3AC",
"Z. c #CCE3B1",
"A. c #D0E2BB",
"S. c #D898C7",
"D. c #DB82C1",
"F. c #EB84C6",
"G. c #E58ACA",
"H. c #ED8BC9",
"J. c #E786C9",
"K. c #E694CC",
"L. c #EF9DD1",
"P. c #F09DD1",
"I. c #CBA9C2",
"U. c #D7A9CC",
"Y. c #C4BFC3",
"T. c #DBB3D2",
"R. c #D8B6CF",
"E. c #F1A8D7",
"W. c #F3B9DE",
"Q. c #F3B5DC",
"!. c #E4B4D0",
"~. c #F4BEE1",
"^. c #C4C4C4",
"/. c #CCCCCC",
"(. c #C9C5C7",
"). c #CCD4C3",
"_. c #D2D7C5",
"`. c #D6CBD3",
"'. c #D9C8D5",
"]. c #D4D4D4",
"[. c #D7D8D7",
"{. c #DDD3DB",
"}. c #DBDBDB",
"|. c #D1CBD0",
" X c #D4E5C2",
".X c #DDEBCD",
"XX c #D9E8C7",
"oX c #DCE6D2",
"OX c #E2EADA",
"+X c #E6F1D9",
"@X c #F6C6E5",
"#X c #F8D3EA",
"$X c #F8D8ED",
"%X c #FADFF0",
"&X c #E3E3E3",
"*X c #ECECEC",
"=X c #E8E7E7",
"-X c #ECF4E3",
";X c #EFF5E9",
":X c #F2F6EC",
">X c #F4F9EF",
",X c #FBE4F2",
"<X c #FCEBF6",
"1X c #F6F9F1",
"2X c #F8FBF5",
"3X c #FDF2F9",
"4X c #FFFFFF",
"5X c #F4F1F1",
"6X c #EFEFF0",
"7X c None",
/* pixels */
"7X7X7X7X7X7X7X7X7X7X7X7X7X7X7X7X7X7X7X7X7X7X7X7X7X7X* * * $ $ $ & $ $ $ * * 7X7X7X7X7X7X7X7X7X7X7X7X7X7X7X7X7X7X7X7X7X7X7X7X7X7X",
"7X7X7X7X7X7X7X7X7X7X7X7X7X7X7X7X7X7X7X7X7X7X# # % = : 3 6 X.X.X.X.X.6 3 1 > = & # # 7X7X7X7X7X7X7X7X7X7X7X7X7X7X7X7X7X7X7X7X7X7X",
"7X7X7X7X7X7X7X7X7X7X7X7X7X7X7X7X7X7X7X@ # % ; 6 #.3.6.r.(.(./.(.^.r.7.8.3.2.#.6 2 - % # * 7X7X7X7X7X7X7X7X7X7X7X7X7X7X7X7X7X7X7X",
"7X7X7X7X7X7X7X7X7X7X7X7X7X7X7X7X7X@ # = 5 %.8.Y./.].[.}.}.}.}.[.].]././.(.Y.7.6.4.$.X.1 = * # 7X7X7X7X7X7X7X7X7X7X7X7X7X7X7X7X7X",
"7X7X7X7X7X7X7X7X7X7X7X7X7X7X7Xo @ = 6 2.7./.].}.}.}.}.}.}.}.}.}.}.].].]././.(.^.7.6.6.2.o.3 = # # 7X7X7X7X7X7X7X7X7X7X7X7X7X7X7X",
"7X7X7X7X7X7X7X7X7X7X7X7X7X7Xo $ 3 =.7./.].}.}.}.}.}.[.[.[.[.].].].].].]./././.^.^.7.6.6.3.2.o.1 & # 7X7X7X7X7X7X7X7X7X7X7X7X7X7X",
"7X7X7X7X7X7X7X7X7X7X7X7X7X+ > #.6.^.|.].].[.[.}.}.}.[.[.[.[.`.[.].[.[.].].].]././.^.r.7.8.6.3.=.X.- # 7X7X7X7X7X7X7X7X7X7X7X7X7X",
"7X7X7X7X7X7X7X7X7X7X7XO @ 2 2.8./.]./.].].].].].[.}.}.}.}.}.}.}.}.}.}.}.}.[.[.].]./.^.^.7.7.8.3.4.#.2 $ # 7X7X7X7X7X7X7X7X7X7X7X",
"7X7X7X7X7X7X7X7X7X7XX * 6 3.r././././././.].].].].}.[.}.}.}.}.}.}.}.&X}.{.}.}.}.].].|./.^.^.7.8.6.3.=.5 % # 7X7X7X7X7X7X7X7X7X7X",
"7X7X7X7X7X7X7X7X7XX $ X.3.^.(.(./././././.].].].].].[.{.{.{.{.{.{.{.{.{.&X{.}.}.].].]././.^.^.7.8.6.6.4.X.= # 7X7X7X7X7X7X7X7X7X",
"7X7X7X7X7X7X7X7XX * X.3.^.(.(.(././././././.].].`.'.U.L.L.J.J.J.J.J.G.K.U.T.T.{.}.}.[.].]./.^.^.^.8.8.6.3.X.= # 7X7X7X7X7X7X7X7X",
"7X7X7X7X7X7X7X. @ X.3.^.^.^.^.(.^.^././././.|.T.K... . .`  .] ] { ..{ Q Q Q D.S.U.'.[.}.].].]./.(.(.^.8.8.3.o.% * 7X7X7X7X7X7X7X",
"7X7X7X7X7X7X7Xo 5 3.7.r.r.^.^.^.(.(././.R.T.J.{ ..U ` ` ] ] ] ] ] { { { { { Q Q W D.I.'.{.[.].]././.^.^.7.8.6.X.% 7X7X7X7X7X7X7X",
"7X7X7X7X7X7XO 1 2.7.r.^.r.^.r.^.^.^.^.R.S.] ) ` U  .` ` ] ] ] ]  . .] ] { { { { W W W D.R.].}.].]././.(.^.7.8.6.5 $ 7X7X7X7X7X7X",
"7X7X7X7X7X. = #.6.r.7.r.r.r.r.^.Y.Y.U...) Y ) ) ) ` ` ` ` ] ` ] U ..` ] { ` ] { ..Q Q W W S.|.[.[.].]././.^.^.7.3.1 * 7X7X7X7X7X",
"7X7X7X7X. + X.6.7.7.7.r.7.r.r.r.Y.G...U U ) U ) ) ) ` ` ) ` ] ] ) ]  .) .. .] { Q { ..Q W W D.|.}.].].]././.(.^.Y.2.= * 7X7X7X7X",
"7X7X7X7XX : 4.8.7.7.7.7.7.7.Y.Y./.Q U U ^ ) ) U ) ) ) ` ` ) ` ` ` ` `  .] } } {  .{ ..! Q ! E q.`.}.}.[.].]././.^.Y.X.$ 7X7X7X7X",
"7X7X7X  * #.8.7.7.7.7.7.r.7.z. XZ.v.| _ U U U ) ) U U ) ) ] {  ... .` ` ] ] ] ] ` `  . .....Q ! q.].}.}.{.].]././.(.7.; * 7X7X7X",
"7X7X7XO 3 6.8.7.7.7.7.7.7.r.).C.V.V.v.| U U U ) U ) } L.@X$X<X<X,X,X#XP.] ` ] ] ] ]  .` ] ! ! Q E S.[.}.}.}.}.].]././.o.& 7X7X7X",
"7X7XO $ $.8.r.r.7.7.7.7.7.^.Z.V.V.V.V.v.( U U U  .W.<X4X4X4X4X4X4X4X4X~.` ] ] ] ..Q.~.G. . .{ ..! E I.}.}.}.}.}.].]./.^.; $ 7X7X",
"7X7Xo 2 6.^.r.r.7.7.7.7.M.Z.c.c.c.c.c.c.0.( _ P.<X4X4X4X4X4X4X4X4X4X~.[ ` ` ` H.,X4X4X3XK.] }  ...! R |.}.}.}.}.}.[.].].o.$ 7X7X",
"7X7X* #.^.(.^.^.7.7.7.7.B.V.c.c.c.x.c.x.c.v.Q.4X4X4X4X4X4X2X<X<X<X~.] ) ` ` H.,X4X4X4X4X@X] ] ]  ...E D.}.}.}.}.}.}.[.[.8.= 7X7X",
"7X# ; 6././.(.^.^.^.r.r.N.j.x.j.x.x.c.j.c..X4X4X4X4X4X%XE.H.} [ } ` ) ) ) J.<X4X4X4X4X4XQ.] ] { `  .] ~ R.}.}.}.}.}.}.}.[.2 * 7X",
"7X* 6 (.]./././.(.^.^.B.V.j.j.j.j.g.j.g.XX4X4X4X4X<XE.[ U U U U U U ) ) J.,X4X4X4X4X4X,XF.] ] ]  .` ] ! I.].}.}.}.}.}.}.}.#.$ 7X",
"7X% 2.[.].].|./././.^.Z.x.j.j.j.g.j.g.C.2X4X4X4X:XH.U U U U U Y U U U J.,X4X4X4X4X4X,XJ.` ] ] ] ] ` `  .R |.}.}.}.}.}.}.&X8.= 7X",
"7X; ^.&X&X[.[.]././.).V.j.x.j.j.g.g.g.+X4X4X4X>Xb.0./ U U U U U ) U } %X4X4X4X4X4X,XF.) ` ` ` ]  . .] { ~ I.&X}.}.}.}.}.}.`.; 7X",
"% 3 ].*X*X&X}.].].].).j.g.g.g.g.g.k.C.2X4X4X4XZ.s.s.0./ U U U U U U H.4X4X4X4X4X,X..) ` ` ` ` ] ) ` ] ]  .R [.}.&X].].}.}.[.3 # ",
"= 6 }.*X6X&X&X&X[.].Z.x.g.g.g.g.k.k..X4X4X4X+Xa.s.i.i.:.^ U U U U U ..3X4X4X4X%X .) ) ` F.] ` ` ` ` ] ] ! ~ ].}.}.].].}.}.}.X.# ",
"= X.[.*X*X&X*X*X&X}.C.j.j.j.g.k.k.g.;X4X4X4XZ.i.s.i.i.i.0.^ Y U U U U E.3X4X#X} ) U ) L.3XK.) ` ` ` ] ]  .P Y.[.[.].].}.}.}.#.* ",
"= O.|.}.&X&X*X6X*X&Xz.g.g.g.g.g.k.x.1X4X4X>Xk.i.i.i.F D D ;.^ Y U U U U } F.[ ) U U L.3X4XQ.) ` ` ` ` `  .P I.[.[.].].}.}.&X2.* ",
"= X.Y.|.[.[.&X*X6XOXh.f.g.g.g.g.a.C.4X4X4X+Xs.i.F F D D D S 0./ Y U U U U U U U U  .<X4X4X@X) ) ) ` ` ` Y P 5.].].|./.[.}.&X4.* ",
"% X.8.r.^./.[.&X*XoXf.l.a.f.f.f.a.Z.4X4X4X+Xi.y.D D D D S b..X!._ Y U U U U U U U F.4X4X4X#X` ) ) ) ` )  .T <.].]././.].[.}.3.* ",
"& 6 6.8.7.r./.[.&XoXl.y.p.a.a.a.a.Z.4X4X4X+Xy.y.S S S S n.2X4X4X!.^ Y U U U U U U F.3X4X4X#X` ) ) ) ) ) ` P <.].|././.].].}.3.* ",
"* 5 3.6.8.6.^.(.]._.u.y.u.y.u.p.p.C.2X4X4X+Xi.D S S S n.2X4X4X4XA.*.^ U U U U U U H.4X4X4X#X) U U ) ) ) ` P <././././.].].[.2.* ",
"# 3 2.3.6.3.8.7.(.^.S S u.u.u.y.u.h.1X4X4X1Xa.S S S n.2X4X4X4X>Xk.C 0./ Y U U U U E.4X4X4XW.U U U ) ) ) ) P 5./././.(.].].[.$.@ ",
"# 1 =.4.3.3.6.6.7.7.>.A A A A u.S p.-X4X4X4XC.S S b.2X4X4X4X1Xj.V C V 9.Y Y U U _ #X4X4X4XP.U U U U ) U U P 6././.(.(././.].O.@ ",
"+ > %.=.2.2.3.6.8.8.>.Z A A A A A A  X4X4X4X+Xi.V.2X4X4X4X>Xz.V V V V V 9.^ Y U H.3X4X4X<X .U U U ) ) U ) K 8././.^.^././.].5 o ",
"o % #.=.=.=.4.4.3.6.-.M Z Z Z Z A Z h.2X4X4X2X.X1X4X4X4X1Xx.B V V V V V V *.^ _ @X4X4X4X@XY U U U U U U I K M.(.^.^././././.; o ",
"7X# X.$.%.=.2.2.3.3.-.m M Z Z M C Z A oX4X4X4X4X4X4X4X1Xc.C V V V V V b V V 9.Q.4X4X4X4XH.Y U U U U U U P 1.^.(.^./.(.(./.7.% 7X",
"7Xo 5 $.$.%.%.=.2.4.2.N M M M M M M M f.1X4X4X4X4X4X1Xz.C V V V V V V V x V C.1X4X4X4X@X' U U U U U U U G <.^.^.^.^.(././.=.# 7X",
"7XO ; $.$.$.%.%.%.=.4.+.c V m M m m m m N.4X4X4X4X4X.XZ V V B B V v B B u.XX4X4X4X4X,X .Y Y Y U U U U I J 7.^.r.^.^.^././.6 O 7X",
"7XX & o.$.#.$.$.%.=.=.%.k M m m m m m v M  X4X4X4X4X4X+XZ.a.y.Z C D x.A.>X4X4X4X4X5XH.Y Y Y Y U U U U P ,.r.7.^.^.^.^.^.r.- O 7X",
"7X7Xo 6 $.#.$.$.$.%.%.=.h m M m v c c v c M _.2X4X4X4X4X4X2X:X-X-X:X2X4X4X4X4X4X:Xd.9.' ' Y Y Y Y Y I J 6.r.7.^.^.^.^.^.2.# 7X7X",
"7X7X. ; =.%.$.$.$.$.$.%.#.q M M m c v c c n v z.;X4X4X4X4X4X4X4X4X4X4X4X4X4X4X.Xu.v V 9._ ' _ Y Y U G ,.7.r.7.^.^.7.r.^.3 O 7X7X",
"7X7X  @ #.2.%.$.#.#.$.$.%.h k M m v c n c n l l u.B.:X4X4X4X4X4X4X4X4X4X4X+Xz.C B v B M 9.' ' ' Y P H 6.7.7.r.r.r.r.^.6.$ X 7X7X",
"7X7X7X. 3 3.2.=.%.$.#.#.$.$.u c M m m c z l l l l l Z z. X-X:X1X>X;X+XA.k.Z x B B v v v v 9.' ' I G 3.7.8.7.7.7.r.7.^.6 O 7X7X7X",
"7X7X7X  # 2.3.3.2.%.$.#.#.$.#.y c M m v n c l l l r s l l l Z Z M v x x x B B B V v v B v b 9.U G ,.7.7.7.7.7.7.8.r.3.$ . 7X7X7X",
"7X7X7X7X  3 7.6.3.2.=.%.$.#.$.o.y c M m c n l l l l s r l r r r f s d d z x B B V B V v v B k 7 ,.7.7.7.7.7.7.7.7.r.3 X 7X7X7X7X",
"7X7X7X7X7X@ %.^.8.3.4.=.%.$.$.$.o.y c Z m c c l l z r l l r r l r B r B l z z B B B B B M t 0 =.7.r.7.7.7.7.7.7.r.%.@ 7X7X7X7X7X",
"7X7X7X7X7X  = ^.^.7.6.3.2.=.%.#.#.o.y q m m m c l t l r r l r r r r r r r l z z m B B m q y 3.^.^.^.r.r.7.7.7.7.6.=   7X7X7X7X7X",
"7X7X7X7X7X7X  5 /.^.Y.8.6.3.=.%.#.%.#.u 0 k v B z l l t r r r r r r r l l d l l z c t q @.r./././.^.^.^.r.7.7.7.3 X 7X7X7X7X7X7X",
"7X7X7X7X7X7X7Xo #.]./.^.8.6.3.2.=.%.#.#.o.y 0 t z z l l r r r e r r r l r r k t t q +.6.].[.]././.(.(.^.^.r.r.X.O 7X7X7X7X7X7X7X",
"7X7X7X7X7X7X7X. @ 2.[.|.(.z.8.5.3.=.%.#.#.#.X.y 0 q t t k r r r e e r r t t w y +.8.&X=X&X}.].].]./././.^.^.#.@   7X7X7X7X7X7X7X",
"7X7X7X7X7X7X7X7X. * 3.}.]./.^.7.6.3.2.=.%.#.#.#.o.u 4 < 9 w 8 8 8 8 8 8 9 u &.z.}.*X6X6X6X&X&X}.].]./././.=.$ O 7X7X7X7X7X7X7X7X",
"7X7X7X7X7X7X7X7X7XX * 4.}.].|.^.r.8.3.3.2.%.#.#.#.$.#.#.o.O.X.g O.O.@.=.3.7.^./.[.&X=X*X6X*X*X&X}.].].].2.& O 7X7X7X7X7X7X7X7X7X",
"7X7X7X7X7X7X7X7X7X7XX @ %.}.[.]./.^.7.6.3.2.=.$.#.#.$.$.%.%.=.=.2.3.3.3.6.8.7.^./.].}.&X*X*X6X*X=X&X[.$.& + 7X7X7X7X7X7X7X7X7X7X",
"7X7X7X7X7X7X7X7X7X7X7XO + 6 `.}.[.|.(.r.8.6.4.2.%.#.#.#.#.#.%.%.=.=.2.3.3.3.8.8.z.Y.`.[.}.*X6X6X5X}.O.$ # 7X7X7X7X7X7X7X7X7X7X7X",
"7X7X7X7X7X7X7X7X7X7X7X7X7XO - 6.}.[.].(.^.7.6.3.4.=.%.#.#.#.#.#.%.%.=.=.2.3.3.6.8.7.Y./.`.}.&X*X(.3 & 7X7X7X7X7X7X7X7X7X7X7X7X7X",
"7X7X7X7X7X7X7X7X7X7X7X7X7X7XX @ 5 (.}.[./.(.r.8.6.2.=.#.#.#.#.#.#.#.#.%.%.=.3.3.6.6.7.r.(.].^.o.; % 7X7X7X7X7X7X7X7X7X7X7X7X7X7X",
"7X7X7X7X7X7X7X7X7X7X7X7X7X7X7X7XX $ X.^.[.]./.^.z.6.3.2.=.$.#.#.#.#.$.%.%.=.2.4.3.3.6.8.3.o.: = 7X7X7X7X7X7X7X7X7X7X7X7X7X7X7X7X",
"7X7X7X7X7X7X7X7X7X7X7X7X7X7X7X7X7XX X * 3 4./.|./.Y.8.5.4.2.%.$.#.#.#.$.%.%.=.2.2.2.o.3 - = = 7X7X7X7X7X7X7X7X7X7X7X7X7X7X7X7X7X",
"7X7X7X7X7X7X7X7X7X7X7X7X7X7X7X7X7X7X7X7X  o % 3 #.3.8.7.6.3.4.=.=.%.$.#.#.#.O.6 2 = & $ 7X7X7X7X7X7X7X7X7X7X7X7X7X7X7X7X7X7X7X7X",
"7X7X7X7X7X7X7X7X7X7X7X7X7X7X7X7X7X7X7X7X7X7XX   X @ $ - : 3 5 3 3 2 : ; = & # @ @ # 7X7X7X7X7X7X7X7X7X7X7X7X7X7X7X7X7X7X7X7X7X7X",
"7X7X7X7X7X7X7X7X7X7X7X7X7X7X7X7X7X7X7X7X7X7X7X7X7X7X      . . . X X X O O + 7X7X7X7X7X7X7X7X7X7X7X7X7X7X7X7X7X7X7X7X7X7X7X7X7X7X"
};
