/* XPM */
static char *bitcoin16[] = {
/* columns rows colors chars-per-pixel */
"16 16 198 2 ",
"   c #555555",
".  c #5A5A5A",
"X  c gray39",
"o  c #646464",
"O  c gray40",
"+  c #676766",
"@  c DimGray",
"#  c #6C6C6C",
"$  c #6C6D6C",
"%  c #6F6E6E",
"&  c #717171",
"*  c #727271",
"=  c gray45",
"-  c #747473",
";  c #767676",
":  c gray47",
">  c #7B7C7B",
",  c #7C7C7B",
"<  c #7EAA51",
"1  c #7FAC52",
"2  c #85AD5C",
"3  c #88B15E",
"4  c #80807F",
"5  c #859871",
"6  c #899C75",
"7  c #8A967E",
"8  c #8BA96D",
"9  c #91B36E",
"0  c #91B869",
"q  c #9ABF6D",
"w  c #9ABC6F",
"e  c #95B176",
"r  c #97B776",
"t  c #98BC71",
"y  c #9CBF75",
"u  c #ABCC7F",
"i  c #E25DAE",
"p  c #E35CAF",
"a  c #E25AB0",
"s  c #E45CB3",
"d  c #D666AD",
"f  c #E467B3",
"g  c #E761B4",
"h  c #E562B6",
"j  c #E567B8",
"k  c #E667B9",
"l  c #E46BBA",
"z  c #E66CBC",
"x  c #EA6FBD",
"c  c #E770BD",
"v  c #E772BE",
"b  c #E374BF",
"n  c #E17ABD",
"m  c #DF7EC0",
"M  c #EB7EC3",
"N  c #EC7DC3",
"B  c #818180",
"V  c gray53",
"C  c #888787",
"Z  c #888888",
"A  c #8E8E8E",
"S  c #919B85",
"D  c #929C86",
"F  c #929292",
"G  c #939293",
"H  c #939393",
"J  c gray59",
"K  c #989A94",
"L  c #9A9D96",
"P  c #9A999A",
"I  c #9B9B9B",
"U  c gray61",
"Y  c #9E9D9E",
"T  c #9F9E9E",
"R  c #B98A8F",
"E  c #A1AD94",
"W  c #A5B098",
"Q  c #BE93AF",
"!  c gray63",
"~  c #A3A2A3",
"^  c #A4A4A4",
"/  c #A5A4A5",
"(  c #A5A5A5",
")  c gray66",
"_  c #AAAAAA",
"`  c #ABAAAB",
"'  c gray67",
"]  c gray68",
"[  c #AFAFAF",
"{  c #AEB9A2",
"}  c gray69",
"|  c #B2B1B2",
" . c #B2B2B2",
".. c #B4B4B4",
"X. c gray71",
"o. c #B7B8B7",
"O. c #BDB0B9",
"+. c #B9B9B9",
"@. c gray73",
"#. c #BCBCBC",
"$. c #BCBDBC",
"%. c #BDBDBE",
"&. c #BEBDBE",
"*. c #BDBFBE",
"=. c gray",
"-. c #CC9AA2",
";. c #D19FA7",
":. c #CE8EB8",
">. c #DE80BF",
",. c #C598B6",
"<. c #D496BF",
"1. c #CDAAA8",
"2. c #D2AFAB",
"3. c #D3ADAD",
"4. c #AACC82",
"5. c #A7C688",
"6. c #ACCD8B",
"7. c #B7D890",
"8. c #BCDB97",
"9. c #B9D69A",
"0. c #B9D39D",
"q. c #BACBA7",
"w. c #C3DD9D",
"e. c #C1DCA3",
"r. c #C2DAA6",
"t. c #C1D7AA",
"y. c #C2D8AB",
"u. c #C2C4BF",
"i. c #C3CCB9",
"p. c #C9DCB5",
"a. c #CFDFBD",
"s. c #CEE4B2",
"d. c #D2E5BE",
"f. c #D2E5BF",
"g. c #DB87C1",
"h. c #EB81C5",
"j. c #EA82C6",
"k. c #E884C7",
"l. c #EC88C8",
"z. c #ED93CD",
"x. c #EE9CD1",
"c. c #EF9DD1",
"v. c #D1ABC4",
"b. c #D8AECA",
"n. c #DBBEC0",
"m. c #D5B5CC",
"M. c #D8B5CD",
"N. c #DDB6D1",
"B. c #DCB9D2",
"V. c #E2A9CF",
"C. c #EFA0D3",
"Z. c #E1ABD0",
"A. c #F0A3D4",
"S. c #F1A9D7",
"D. c #F1AAD8",
"F. c #F2B0DA",
"G. c #F4B8DE",
"H. c #F6BEE1",
"J. c #C3C2C3",
"K. c #C3C3C3",
"L. c gray78",
"P. c gray79",
"I. c #C8CAC8",
"U. c #CBCCCB",
"Y. c #CCCDCC",
"T. c #CDCFCE",
"R. c #CBD5C0",
"E. c #D0D3CD",
"W. c #D3C9D0",
"Q. c #D4CBD2",
"!. c #D0CFD0",
"~. c #DACED6",
"^. c #D3D4D3",
"/. c #D5D7D6",
"(. c #D6D7D6",
"). c #D7D9D8",
"_. c #D8DAD9",
"`. c #D9DBDA",
"'. c #DBDDDB",
"]. c #DCDCDD",
"[. c #E7D2D1",
"{. c #D5E7C0",
"}. c #D7E8C2",
"|. c #D8E8C6",
" X c #DDECCB",
".X c #E6EEDA",
"XX c #E7F3DE",
"oX c #FAD9EE",
"OX c #FBDAF0",
"+X c #E0E0E1",
"@X c gray90",
"#X c #EDF5E5",
"$X c #EDF7E4",
"%X c #EFF5E8",
"&X c #F1F7EA",
"*X c #FAE2F2",
"=X c #FCEAF5",
"-X c None",
/* pixels */
"-X-X-X-X-X: J ! I V @ -X-X-X-X-X",
"-X-X-XO ^ U._.`.).T.o.F X -X-X-X",
"-X-X#  .Y.W.N.V.Z.B.Q.P.' = -X-X",
"-X. ' K.v.n j k z b g.m.!.X.= -X",
"-XH =.i.3.f l.F.C.v k.m M.(.] -X",
"= %.u.r.w.[.oXG.z.D.*Xj.>.~.^.Z ",
"^ ].R.8.s.$X2.i h.=XS.c l b.'.^ ",
"^ +Xa.7. X}.u ;.x M c.x.h <./.[ ",
"C &.q.4.|.{.e..X-.p H.A.s :.T.) ",
"% ~ W y 0.&X#X9.q 1.OXN a ,.I.H ",
"  G L e t p.%Xd.f.XXn.g d O.$.& ",
"-XZ T D 9 0 5.t.y.6.w R Q *.U -X",
"-X+ ] ( S 8 2 < 1 3 r { J.} o -X",
"-X-X4 @.| K 7 5 6 E E.@XL.> -X-X",
"-X-X-X; _ ../ P Y ` +.#.A -X-X-X",
"-X-X-X-X-X* B , - & $ -X-X-X-X-X"
};
