/* XPM */
static char *bitcoin32[] = {
/* columns rows colors chars-per-pixel */
"32 32 192 2 ",
"   c #131515",
".  c #171619",
"X  c #18171A",
"o  c #161918",
"O  c #1B1B1C",
"+  c #141917",
"@  c #21191E",
"#  c #1E201E",
"$  c #20241D",
"%  c #242A1E",
"&  c #2E3B1F",
"*  c #1F1F20",
"=  c #221D21",
"-  c #2C1B25",
";  c #2C1422",
":  c #361629",
">  c #341C2A",
",  c #3C1C2E",
"<  c #311927",
"1  c #3E1E31",
"2  c #1E2120",
"3  c #222222",
"4  c #292126",
"5  c #262B22",
"6  c #282D23",
"7  c #2C2529",
"8  c #34252C",
"9  c #38262E",
"0  c #2B3224",
"q  c #2E3B20",
"w  c #313D25",
"e  c #343B2C",
"r  c #30362A",
"t  c #3B2C33",
"y  c #450F2D",
"u  c #44112E",
"i  c #431630",
"p  c #4B1A36",
"a  c #481A34",
"s  c #58173D",
"d  c #60143F",
"f  c #452936",
"g  c #542A3E",
"h  c #49323D",
"j  c #36422A",
"k  c #38462A",
"l  c #3A4A2A",
"z  c #334125",
"x  c #3B4333",
"c  c #42542F",
"v  c #465B2F",
"b  c #485F2E",
"n  c #465A30",
"m  c #495C35",
"M  c #4D5C3D",
"N  c #475439",
"B  c #464F3C",
"V  c #4C672E",
"C  c #4C6432",
"Z  c #4F6932",
"A  c #526E33",
"S  c #51653B",
"D  c #587637",
"F  c #5A7A36",
"G  c #597737",
"H  c #5E1B41",
"J  c #7D0D4D",
"K  c #651442",
"L  c #6B1446",
"P  c #6F1649",
"I  c #691946",
"U  c #75154B",
"Y  c #7B134E",
"T  c #5D2242",
"R  c #4D3741",
"E  c #573745",
"W  c #603E4D",
"Q  c #792D52",
"!  c #505C42",
"~  c #4F5945",
"^  c #76445A",
"/  c #5D694E",
"(  c #5F6B50",
")  c #5E7643",
"_  c #73655F",
"`  c #677952",
"'  c #647154",
"]  c #657B4D",
"[  c #7C5163",
"{  c #980F5D",
"}  c #821252",
"|  c #8A1256",
" . c #96115D",
".. c #88315B",
"X. c #9C1160",
"o. c #AA0D67",
"O. c #AF0D69",
"+. c #B70C6D",
"@. c #BA0B6E",
"#. c #BD0C70",
"$. c #B91871",
"%. c #9E3968",
"&. c #AE3A71",
"*. c #BC3D7A",
"=. c #A13A6B",
"-. c #C50B74",
";. c #C90A76",
":. c #C90875",
">. c #D7077D",
",. c #D8087E",
"<. c #D60B7C",
"1. c #C71978",
"2. c #CC197B",
"3. c #A45B5F",
"4. c #864C65",
"5. c #8F5A70",
"6. c #955D75",
"7. c #9D486E",
"8. c #A04A70",
"9. c #B9487C",
"0. c #A35778",
"q. c #B7547F",
"w. c #937069",
"e. c #BF666B",
"r. c #B26165",
"t. c #A2657F",
"y. c #62853A",
"u. c #688F3D",
"i. c #64883B",
"p. c #6B943D",
"a. c #6E983F",
"s. c #709B3F",
"d. c #6B884A",
"f. c #6E9641",
"g. c #719D40",
"h. c #799D4E",
"j. c #6D8156",
"k. c #718B54",
"l. c #73895B",
"z. c #7B9F50",
"x. c #76A442",
"c. c #79A543",
"v. c #7AA944",
"b. c #7DAB48",
"n. c #7FB245",
"m. c #7DA351",
"M. c #82AC47",
"N. c #81B546",
"B. c #86B84B",
"V. c #90BE4D",
"C. c #83A859",
"Z. c #87B058",
"A. c #8A9F71",
"S. c #8AAD63",
"D. c #89A667",
"F. c #8EB265",
"G. c #8BA071",
"H. c #96B473",
"J. c #9AB876",
"K. c #8CC64A",
"L. c #8EC84B",
"P. c #9ECF63",
"I. c #9ED064",
"U. c #A9D476",
"Y. c #DB0780",
"T. c #DD1883",
"R. c #EE0589",
"E. c #EB0C87",
"W. c #F1048B",
"Q. c #C73F80",
"!. c #AE5D80",
"~. c #BB6D8E",
"^. c #C65688",
"/. c #C85789",
"(. c #F44A9A",
"). c #C96C92",
"_. c #C17594",
"`. c #C5678F",
"'. c #E16498",
"]. c #D27EA0",
"[. c #F567A5",
"{. c #F57DB0",
"}. c #A1B782",
"|. c #D5A89C",
" X c #F591BA",
".X c #E18AAC",
"XX c #DCB6AA",
"oX c #B3D888",
"OX c #B3CA90",
"+X c #BEDC98",
"@X c #AAC680",
"#X c None",
/* pixels */
"#X#X#X#X#X#X#X#X#X#X#X#XW.W.W.R.R.R.W.W.#X#X#X#X#X#X#X#X#X#X#X#X",
"#X#X#X#X#X#X#X#X#X#XR.Y.#.X.} U U | X.#.Y.R.#X#X#X#X#X#X#X#X#X#X",
"#X#X#X#X#X#X#X#XR.:.J i = X O # # 2 2 4 , J -.R.#X#X#X#X#X#X#X#X",
"#X#X#X#X#X#XR.,.Y < O o X X o o # 2 2 2 O   ; J >.R.#X#X#X#X#X#X",
"#X#X#X#X#XW.-.p O o o X ; : K U P K p 4 2 2 X   y :.E.#X#X#X#X#X",
"#X#X#X#XR.+.1 O * O < Y @.-.+.o.o.+.-. .4 3 > : y -.e.V.#X#X#X#X",
"#X#X#XR.-.1 2 2 * L -.O.K : = X O @ L ;.> I -.-.<.e.c.x.K.#X#X#X",
"#X#X#XY.p 2 2 4 | ;.L =     X X X i -.} I ;.P H 3.N.q & N.#X#X#X",
"#X#XR.} # # 3 | -.p # # - K  .O.o.:.| L ;.I * * l v.0   V K.#X#X",
"#X#X-.< O # K ;.p 2 = H #.@.| L L s L :.K O O * C x.0 X # x.#X#X",
"#XR.} o O - #.U 2 3 U ;.P - + + . d :.K O O O n v.c 3 O o Z K.#X",
"#XT.i o O I $.- # T 2.H 2 * * * i 1.K X X X n b.n 0 4 2 O w B.#X",
"(.*.@ X @ &.Q o 4 *...2 2 # * + g *., .   n C.m ) Z.d.7 3 3 m.P.",
"[.7.X o 8 ^.f o R ^.9 3 3 2 * + E '.w.0 / F.C ] S.S S.x * 3 k.U.",
"{.4.X o h `.7 o 4.0.= 3 2 6 R E `.|.U.H.H.N N H.e 2 D.! O 3 ` oX",
" X[ O o E _.4 o 6.5.X O 7 !..X.XXX}.~ B e X / G.O O G.( O O ' +X",
" X[ O O E _.3 X 6.6.X > !.~.h _ OX~ X X X X / G.O O A./ O O ' +X",
" X4.2 O h `.8   ^ !.> 8.~.t O x H.B * * * X ` l.o 3 D.! X O ' oX",
"[.7.3 2 8 ^.E   f /.!.!.8 + r C.k.7 = * * 5 D.M X 0 S.e o O k.U.",
"(.*.4 3 3 =...O O %.9.8 + 0 m.d.6 * = = * C m.5 X n m.# o # m.P.",
"#XT.i # 2 T 1.> o < > o % g.i.3 * * 2 2 c b.c O $ p.A X . w B.#X",
"#XW.} X # 4 o. .= o o 5 s.a.5 X O * 0 A b.C * * n x.6 X X A K.#X",
"#X#X:.; O # a :.P O X 5 y.x.p.F D i.x.g.l 3 * j c.v O X % c.#X#X",
"#X#XR.J o o p <.r.C # X X q C F G Z l 3 2 3 x x.D 3 O O A K.#X#X",
"#X#X#X,.y u -.e.M.v.F 0 O X X X X X X X 5 C v.G 3 3 O k N.#X#X#X",
"#X#X#XR.:.;.e.c.j j p.x.D k % $ # % w V g.x.c 3 3 2 r x.K.#X#X#X",
"#X#X#X#XE.e.c.q o * 4 c y.x.x.s.s.x.x.p.n 5 O 3 * r g.K.#X#X#X#X",
"#X#X#X#X#XV.v.& . X # 3 2 6 w l l w 0 O X X O O k x.K.#X#X#X#X#X",
"#X#X#X#X#X#XK.N.Z % X O 2 = O O X X X X X X % A N.K.#X#X#X#X#X#X",
"#X#X#X#X#X#X#X#XK.x.A w 5 3 = O X X X $ w A v.K.#X#X#X#X#X#X#X#X",
"#X#X#X#X#X#X#X#X#X#XK.B.g.y.D Z V D y.g.N.K.#X#X#X#X#X#X#X#X#X#X",
"#X#X#X#X#X#X#X#X#X#X#X#XL.L.K.K.K.K.L.K.#X#X#X#X#X#X#X#X#X#X#X#X"
};
