/* XPM */
static char *bitcoin16[] = {
/* columns rows colors chars-per-pixel */
"16 16 202 2 ",
"   c #1F191E",
".  c #1B1F1E",
"X  c #1E1C1D",
"o  c #1C1F1C",
"O  c #1E1F1D",
"+  c #201B1F",
"@  c #1E201D",
"#  c #1F201F",
"$  c #20241D",
"%  c #22261F",
"&  c #212A1E",
"*  c #27301F",
"=  c #1D1C20",
"-  c #251B22",
";  c #221D21",
":  c #201E20",
">  c #211E20",
",  c #271C22",
"<  c #271F24",
"1  c #281822",
"2  c #2B1925",
"3  c #281E25",
"4  c #2E1E28",
"5  c #351528",
"6  c #361729",
"7  c #3A1B2D",
"8  c #3D1B2E",
"9  c #1F2020",
"0  c #202120",
"q  c #222321",
"w  c #222520",
"e  c #232422",
"r  c #232522",
"t  c #242522",
"y  c #262024",
"u  c #252224",
"i  c #272325",
"p  c #262725",
"a  c #2A2423",
"s  c #282324",
"d  c #272B24",
"f  c #282C25",
"g  c #2D2329",
"h  c #3A202F",
"j  c #342F2B",
"k  c #2A3321",
"l  c #2A3421",
"z  c #2D3623",
"x  c #2E3526",
"c  c #2F3627",
"v  c #2F3924",
"b  c #2F342A",
"n  c #323F25",
"m  c #333C29",
"M  c #3C2030",
"N  c #3A2A31",
"B  c #40162F",
"V  c #421630",
"C  c #471532",
"Z  c #481733",
"A  c #4B1534",
"S  c #4A1634",
"D  c #471A34",
"F  c #4B1935",
"G  c #492637",
"H  c #4D2639",
"J  c #4D283B",
"K  c #334025",
"L  c #334026",
"P  c #344126",
"I  c #354326",
"U  c #354227",
"Y  c #37412C",
"T  c #38442A",
"R  c #3F4F2C",
"E  c #3C4533",
"W  c #3D4634",
"Q  c #43562E",
"!  c #43562F",
"~  c #44572F",
"^  c #43592C",
"/  c #445A2C",
"(  c #45592F",
")  c #465C30",
"_  c #495F30",
"`  c #4C5E3A",
"'  c #4B583E",
"]  c #4F5E3D",
"[  c #4B642F",
"{  c #4A6031",
"}  c #4C6331",
"|  c #4C6430",
" . c #4E6632",
".. c #4E6830",
"X. c #4F6931",
"o. c #4F613B",
"O. c #506A33",
"+. c #506835",
"@. c #53653E",
"#. c #586F3F",
"$. c #557332",
"%. c #567533",
"&. c #567237",
"*. c #557434",
"=. c #577436",
"-. c #587735",
";. c #5E7437",
":. c #5F7737",
">. c #597836",
",. c #5E713A",
"<. c #631742",
"1. c #681143",
"2. c #691345",
"3. c #6D1246",
"4. c #691746",
"5. c #601840",
"6. c #631843",
"7. c #641844",
"8. c #6F1549",
"9. c #6F1649",
"0. c #721349",
"q. c #74134A",
"w. c #78114C",
"e. c #7A114D",
"r. c #7A134E",
"t. c #7E104F",
"y. c #79154E",
"u. c #78184E",
"i. c #7C1850",
"p. c #4D3841",
"a. c #5C3848",
"s. c #673E41",
"d. c #68304B",
"f. c #68334C",
"g. c #6A334C",
"h. c #703551",
"j. c #574442",
"k. c #78495D",
"l. c #784A5D",
"z. c #625751",
"x. c #657F47",
"c. c #61704F",
"v. c #627150",
"b. c #647551",
"n. c #717E59",
"m. c #7D4B60",
"M. c #7E4C61",
"N. c #890C53",
"B. c #8B0D55",
"V. c #8D0F57",
"C. c #900F59",
"Z. c #881456",
"A. c #851955",
"S. c #8B1957",
"D. c #8E1058",
"F. c #901356",
"G. c #931258",
"H. c #92105A",
"J. c #A00F61",
"K. c #B20C6A",
"L. c #B30D6B",
"P. c #A11062",
"I. c #8A3D61",
"U. c #CA0B77",
"Y. c #CF0679",
"T. c #D00679",
"R. c #D3087B",
"E. c #D6087D",
"W. c #D3147E",
"Q. c #D4157E",
"!. c #9A5559",
"~. c #9C565A",
"^. c #8E4062",
"/. c #814E64",
"(. c #8F5C70",
"). c #B44378",
"_. c #B5467A",
"`. c #A35F7C",
"'. c #BF666B",
"]. c #A5607D",
"[. c #C0656B",
"{. c #63863A",
"}. c #64883B",
"|. c #6C953D",
" X c #6D973F",
".X c #67814A",
"XX c #72805D",
"oX c #7A9B54",
"OX c #7B9C55",
"+X c #7BAD42",
"@X c #7BAE42",
"#X c #7AA944",
"$X c #7EB044",
"%X c #7EB045",
"&X c #7FB245",
"*X c #7E9365",
"=X c #7F9466",
"-X c #80B346",
";X c #80B048",
":X c #80B148",
">X c #B5938A",
",X c None",
/* pixels */
",X,X,X,X,XR.K.J.P.L.R.,X,X,X,X,X",
",X,X,XE.V.C 1 - 3 4 S N.Y.,X,X,X",
",X,XU.<.+ B 3.w.r.4.< 5 G.'.,X,X",
",XE.7.y 8.q.V 6 A H.y.Z.!.:.+X,X",
",XD.; 9.6.7 0.e.t.C.2.s =.* $.,X",
"W.Z 8 u.M A.D + 5.1.X ) +.t P ;X",
")., d.G h.J . : ^.j.` x..X] f OX",
"`.> k.N M.i p.(.>Xn.' b.W v.p =X",
"].u l.N m.a./.z.XX9 # v.b c.e *X",
"_.g f.H g.I.j #.E = Y @.m o.% oX",
"Q.F h i.2 a *.R w T &.x } v n :X",
",XB.  S.s.& / ..X._ c ! _ O -.,X",
",XT.F.~.,.O.I l k L  .{ r Q &X,X",
",X,X[.;.o x ( | [ ^ z 0 ~ #X,X,X",
",X,X,X@X%.U d q @ $ K >.-X,X,X,X",
",X,X,X,X,X%X X}.{.|.$X,X,X,X,X,X"
};
