/* XPM */
static char *bitcoin32[] = {
/* columns rows colors chars-per-pixel */
"32 32 174 2 ",
"   c #1F201F",
".  c #232423",
"X  c #2C2D2C",
"o  c #333333",
"O  c #3D3D3D",
"+  c #434343",
"@  c #4B4B4A",
"#  c #474847",
"$  c #4F504F",
"%  c #535353",
"&  c #5B5B5B",
"*  c #60605F",
"=  c #646464",
"-  c #6A6A6A",
";  c #747474",
":  c #7B7B7B",
">  c #75994F",
",  c #779A53",
"<  c #7A9A59",
"1  c #7EAB51",
"2  c #7E9863",
"3  c #81AD55",
"4  c #86AF5C",
"5  c #86B15C",
"6  c #88B15D",
"7  c #829371",
"8  c #89A56C",
"9  c #89A968",
"0  c #8DB463",
"q  c #91BB67",
"w  c #91B769",
"e  c #95BB6C",
"r  c #98BC6E",
"t  c #8EA576",
"y  c #9ABE72",
"u  c #96B871",
"i  c #97C06B",
"p  c #9AC26D",
"a  c #9DC072",
"s  c #A1C47A",
"d  c #A5CA7C",
"f  c #A9CE7E",
"g  c #BD76A5",
"h  c #D75AAA",
"j  c #E65BB3",
"k  c #E95DB5",
"l  c #CC66A8",
"z  c #D665AE",
"x  c #D96CB4",
"c  c #DD76BD",
"v  c #D67DB8",
"b  c #E360AF",
"n  c #E562B5",
"m  c #E962B7",
"M  c #E569B4",
"N  c #E566B8",
"B  c #E66CBB",
"V  c #E472BE",
"C  c #E974BE",
"Z  c #E979C1",
"A  c #E47AC0",
"S  c #848484",
"D  c #8C8C8C",
"F  c #898E83",
"G  c #908F8F",
"H  c #8F918B",
"J  c #8C9284",
"K  c #93978E",
"L  c #959595",
"P  c #989797",
"I  c #9C9B9C",
"U  c #989798",
"Y  c #AF8189",
"T  c #BE958E",
"R  c #98A985",
"E  c #9DA198",
"W  c #A0B984",
"Q  c #A0A898",
"!  c #B496AA",
"~  c #A3A2A2",
"^  c #ACACAC",
"/  c #A8A7A8",
"(  c #B1A0AC",
")  c #B3B3B2",
"_  c #B9B7B8",
"`  c #BCBCBC",
"'  c #BABDB6",
"]  c #C18E93",
"[  c #C19093",
"{  c #C4A296",
"}  c #D683BD",
"|  c #D880BF",
" . c #D1B3A7",
".. c #DAAAB7",
"X. c #C3B3BE",
"o. c #C1BEBF",
"O. c #D4BDB4",
"+. c #A7C587",
"@. c #A7CA82",
"#. c #AACC83",
"$. c #B0CD8D",
"%. c #ADD084",
"&. c #AFD188",
"*. c #B2D28C",
"=. c #B5D491",
"-. c #BBDA95",
";. c #BEDC9A",
":. c #B8D596",
">. c #BDD4A2",
",. c #BFC1BD",
"<. c #C0DD9A",
"1. c #C3E09E",
"2. c #C3DDA4",
"3. c #C9DDAE",
"4. c #C0C4BC",
"5. c #C4CABE",
"6. c #DBC7BE",
"7. c #C7D4B6",
"8. c #CADDB6",
"9. c #C7E3A1",
"0. c #CDE2B5",
"q. c #D0E0BF",
"w. c #D496C1",
"e. c #DB9AC8",
"r. c #E583C5",
"t. c #EC8BCA",
"y. c #EB84C6",
"u. c #ED93CD",
"i. c #E491C9",
"p. c #F098CE",
"a. c #EE9BD1",
"s. c #DDAACE",
"d. c #CCB5C5",
"f. c #D5BCCE",
"g. c #F1ABD6",
"h. c #F2A6D5",
"j. c #F4B9DF",
"k. c #F3B4DC",
"l. c #F4BCE0",
"z. c #BFC0C0",
"x. c #C3C3C3",
"c. c #CEC1CB",
"v. c #CCCCCC",
"b. c #DEC9C6",
"n. c #D4D9CE",
"m. c #D7C8D3",
"M. c #D7C3D2",
"N. c #D4D4D4",
"B. c #DDD3DB",
"V. c #DADADA",
"C. c #D7D8D8",
"Z. c #DCEBCC",
"A. c #DAEBC7",
"S. c #DEEBD0",
"D. c #E4ECDB",
"F. c #E1E5DE",
"G. c #E6F1DA",
"H. c #E9F3DF",
"J. c #F7CAE7",
"K. c #FADFF0",
"L. c #E5E5E5",
"P. c #EBEBEB",
"I. c #ECF4E4",
"U. c #EFF6E8",
"Y. c #F2F7ED",
"T. c #F3F8ED",
"R. c #FAE2F1",
"E. c #FCEDF6",
"W. c #FCEFF8",
"Q. c #F6FAF2",
"!. c #F9FCF6",
"~. c #FDF2F9",
"^. c #FEFEFD",
"/. c None",
/* pixels */
"/./././././././././././.# % = - = = $ + /./././././././././././.",
"/././././././././.O = L ) x.v.v.x.o.^ U : & O /././././././././.",
"/././././././.o = ~ v.V.V.V.V.V.N.N.v.v.` ^ D & o /././././././.",
"/./././././.+ S ` N.N.C.V.V.C.C.V.V.N.N.v.z._ / g O /./././././.",
"/././././.# I x.v.v.N.N.C.V.B.B.B.B.B.V.N.m.x.` ) L % /././././.",
"/./././.# ~ x.v.x.v.v.M.s.i.r.Z r.r.e.s.m.C.N.v.z._ ~ & /./././.",
"/././.o L x.x.x.x.c.e.V N N B B V V V c r.w.m.m.v.v.,.~ % /././.",
"/./.  : ` ` ` z.d.r.m k N N N B B B B A c v w.f.C.N.v.x.K + /./.",
"/./.% ) ` ` ` 5.O.M j n n n B C Z A Z B A A v r.f.C.C.v.x.; /./.",
"/.X K d.` ` z.0.9. .M j y.j.R.W.K.l.N Z y.i.V c } m.V.V.C.) $ /.",
"/.& ,.z.` ` 7.1.1.1. .g.~.^.^.W.K.y.N a.W.W.u.B V } S.V.V.N.: /.",
"/.G v.v.x.5.9.;.<.<.A.^.~.j.y.C A k a.~.^.W.t.B V c f.V.V.V./ /.",
"% ` V.N.v.7.;.;.-.0.^.!.6.x j j j t.W.^.~.a.N B B B w.V.V.V.x.% ",
"- C.P.V.N.3.-.-.-.G.^.A.*.{ b k j l.^.W.u.N V N B B v C.V.V.N.- ",
"; N.L.P.S.2.;.-.;.Q.!.;.#.f { b j Z k.t.k h.J.N N B x c.N.C.C.; ",
"- z.N.L.L.:.=.=.9.!.U.&.f f *...k j j j A E.K.B n N z d.N.N.V.: ",
"* ) _ v.N.$.#.&.<.^.U.&.d *.H.^...b j j Z ~.R.B m n z X.v.v.C.: ",
"% ~ ^ _ ,.+.@.@.=.T.!.:.*.H.^.D.@.[ j j p.^.J.N n k z o.v.v.v.- ",
"+ G ~ ^ ) W a @.s S.^.Z.G.^.G.#.p p T M J.^.h.j k j l z.x.x.x.& ",
"  g I Q / R y y y :.!.^.^.G.#.i p e a b.^.R.C j j j g z.v.v.) O ",
"/.- E L E E u y u y 8.^.^.Z.=.d d *.Z.^.!.p.k k k h ! x.x.x.L /.",
"/.@ L L P I t u u e e 8.!.^.!.Y.T.^.^.Y.>.] m k j g _ z.z.z.= /.",
"/.. F ~ P P K t y w 0 w +.8.I.Y.T.H.8.#.e r ] m l ! ` ` x.I X /.",
"/./.& ^ ~ I P J 8 u w 0 4 0 0 e r q q r i i e Y ! ` ` ` _ = /./.",
"/./.. G ` ^ I P J 8 e w 0 4 3 3 3 5 6 q i q 8 E ,.` ` ` D . /./.",
"/././.+ ) x.) ~ I D 7 9 0 4 3 1 1 3 5 5 9 R ` N.v.x.x./ O /././.",
"/./././.% ,.v._ ^ I L F 2 2 2 , > 1 2 R ,.L.L.B.v.v.) $ /./././.",
"/././././.% ` N.x.) ~ U L G D H H I ^ z.C.L.P.P.L._ & /././././.",
"/./././././.@ ~ N.v.` ^ E U U I ~ ~ ^ ) ` v.S.P._ & /./././././.",
"/././././././.. - ^ v.x.) ~ U L L U ~ / ) _ ^ S % /././././././.",
"/././././././././.o * D / ^ ~ I L G H D : = $ /././././././././.",
"/./././././././././././.X O @ @ @ + O o /./././././././././././."
};
